# xmcd
#
# Track frame offsets: 
#        150
#        14972
#        35915
#
# Disc length: 629 seconds
#
# Revision: 0
# Processed by: cddbd v1.5.2PL0 Copyright (c) Steve Scherf et al.
# Submitted via: ExactAudioCopy v1.1
#
DISCID=28027303
DTITLE=Carol Elliott - Message From Walter
DYEAR=1999
DGENRE=Country
TTITLE0=Message From Walter
TTITLE1=Gypsy Spirit
TTITLE2=Sergeant York's Song
EXTD=
EXTT0=
EXTT1=
EXTT2=
PLAYORDER=
